<?xml version="1.0" encoding="UTF-8" standalone="no"?>
<!-- Created with Inkscape (http://www.inkscape.org/) -->

<svg
   width="48"
   height="48"
   viewBox="0 0 12.7 12.7"
   version="1.1"
   id="svg5"
   inkscape:version="1.1.1 (3bf5ae0d25, 2021-09-20)"
   sodipodi:docname="logo.svg"
   xmlns:inkscape="http://www.inkscape.org/namespaces/inkscape"
   xmlns:sodipodi="http://sodipodi.sourceforge.net/DTD/sodipodi-0.dtd"
   xmlns:xlink="http://www.w3.org/1999/xlink"
   xmlns="http://www.w3.org/2000/svg"
   xmlns:svg="http://www.w3.org/2000/svg">
  <sodipodi:namedview
     id="namedview7"
     pagecolor="#000000"
     bordercolor="#666666"
     borderopacity="1.0"
     inkscape:pageshadow="2"
     inkscape:pageopacity="0"
     inkscape:pagecheckerboard="true"
     inkscape:document-units="mm"
     showgrid="false"
     inkscape:zoom="9.050808"
     inkscape:cx="22.815643"
     inkscape:cy="35.96364"
     inkscape:window-width="2560"
     inkscape:window-height="1417"
     inkscape:window-x="1912"
     inkscape:window-y="-8"
     inkscape:window-maximized="1"
     inkscape:current-layer="layer1"
     units="px" />
  <defs
     id="defs2">
    <linearGradient
       inkscape:collect="always"
       id="linearGradient11112">
      <stop
         style="stop-color:#ffffff;stop-opacity:1;"
         offset="0"
         id="stop11108" />
      <stop
         style="stop-color:#000000;stop-opacity:1"
         offset="1"
         id="stop11110" />
    </linearGradient>
    <linearGradient
       inkscape:collect="always"
       id="linearGradient10858">
      <stop
         style="stop-color:#ffffff;stop-opacity:1;"
         offset="0"
         id="stop10854" />
      <stop
         style="stop-color:#001afd;stop-opacity:0.93925232"
         offset="1"
         id="stop10856" />
    </linearGradient>
    <linearGradient
       inkscape:collect="always"
       id="linearGradient10285">
      <stop
         style="stop-color:#00ff33;stop-opacity:1"
         offset="0"
         id="stop10281" />
      <stop
         style="stop-color:#ffffff;stop-opacity:0;"
         offset="1"
         id="stop10283" />
    </linearGradient>
    <linearGradient
       inkscape:collect="always"
       id="linearGradient9482">
      <stop
         style="stop-color:#ffffff;stop-opacity:0"
         offset="0"
         id="stop9478" />
      <stop
         style="stop-color:#fffa00;stop-opacity:1"
         offset="1"
         id="stop9480" />
    </linearGradient>
    <linearGradient
       inkscape:collect="always"
       id="linearGradient6979">
      <stop
         style="stop-color:#ff0000;stop-opacity:1"
         offset="0"
         id="stop6975" />
      <stop
         style="stop-color:#ffffff;stop-opacity:0;"
         offset="1"
         id="stop6977" />
    </linearGradient>
    <clipPath
       clipPathUnits="userSpaceOnUse"
       id="clipPath6047">
      <g
         inkscape:label="Clip"
         id="use6049">
        <path
           id="path14549"
           style="fill:#ed1956;fill-opacity:1;stroke:none;stroke-width:7.55906;stroke-linecap:round;stroke-linejoin:round;stroke-miterlimit:4;stroke-dasharray:none;stroke-opacity:1;paint-order:normal"
           d="m 361.88086,299.38086 -18.75,0.625 -8.75,3.75 -20.625,2.5 -15.625,0.625 -13.75,6.875 -13.75195,3.75 v 6.875 l -10.32032,-1.31641 -4.41992,9.28125 6.62891,19.44532 3.09375,16.35351 -5.74414,23.86524 c 0,0 12.81532,27.40048 13.69922,30.49414 0.8839,3.09365 18.12109,46.40429 18.12109,46.40429 l 12.81641,26.95899 4.41797,23.42383 c 0,0 17.67914,30.93532 18.12109,32.70312 0.44195,1.7678 12.33789,29.89063 12.33789,29.89063 l 17.5,21.875 20,32.50195 33.49219,11.87305 44.67773,-18.69532 30.58203,-38.17968 c 0,0 -12.5,-21.24991 -12.5,-27.5 0,-6.25013 5,-48.74994 5,-53.125 0,-4.37507 5,-53.12696 5,-53.12696 l 15,-50 -5.625,-19.37695 -14.375,-13.125 -34.375,-3.75 z m -51.25,43.75 13.125,3.75 h 16.875 l 3.75,5 4.11133,4.8418 -9.11133,10.1582 -1.875,13.75 5.625,15.62695 -2.5,15 0.55469,7.26758 3.53515,7.51367 2.31641,5.53125 -12.03125,-5.3125 -26.875,-39.37695 0.625,-11.25 -15,-31.875 z"
           transform="scale(0.26458333)"
           clip-path="none" />
      </g>
    </clipPath>
    <linearGradient
       inkscape:collect="always"
       xlink:href="#linearGradient6979"
       id="linearGradient6981"
       x1="19.805035"
       y1="13.750242"
       x2="18.984709"
       y2="22.422268"
       gradientUnits="userSpaceOnUse"
       gradientTransform="matrix(0.31243004,0,0,0.31243004,-1.1314266,-1.1832274)" />
    <linearGradient
       inkscape:collect="always"
       xlink:href="#linearGradient9482"
       id="linearGradient9348"
       x1="24.628941"
       y1="22.509724"
       x2="27.394487"
       y2="13.734526"
       gradientUnits="userSpaceOnUse"
       gradientTransform="matrix(0.31243004,0,0,0.31243004,-1.1314266,-1.1832274)" />
    <linearGradient
       inkscape:collect="always"
       xlink:href="#linearGradient10285"
       id="linearGradient10287"
       x1="32.336025"
       y1="16.726421"
       x2="29.074242"
       y2="23.44529"
       gradientUnits="userSpaceOnUse"
       gradientTransform="matrix(0.31243004,0,0,0.31243004,-1.1314266,-1.1832274)" />
    <linearGradient
       inkscape:collect="always"
       xlink:href="#linearGradient10858"
       id="linearGradient10860"
       x1="32.898472"
       y1="26.220716"
       x2="35.522293"
       y2="22.080021"
       gradientUnits="userSpaceOnUse"
       gradientTransform="matrix(0.31243004,0,0,0.31243004,-1.1314266,-1.1832274)" />
    <radialGradient
       inkscape:collect="always"
       xlink:href="#linearGradient11112"
       id="radialGradient11914"
       cx="4.6289449"
       cy="7.1686993"
       fx="4.6289449"
       fy="7.1686993"
       r="3.9397097"
       gradientTransform="matrix(-1.0561905,2.2781197,-5.1060952,-2.3672231,48.367844,13.101099)"
       gradientUnits="userSpaceOnUse" />
  </defs>
  <g
     inkscape:label="Layer 1"
     inkscape:groupmode="layer"
     id="layer1">
    <path
       style="display:inline;opacity:1;fill:url(#radialGradient11914);fill-opacity:1;stroke:#000000;stroke-width:0;stroke-linecap:round;stroke-linejoin:round;stroke-miterlimit:4;stroke-dasharray:none;stroke-opacity:1;paint-order:markers stroke fill"
       d="M 3.7601657,7.2158301 C 3.4532341,7.2576057 3.3661167,6.8437395 3.214463,6.463647 3.0787985,6.1236263 3.1137318,5.7208018 2.9342369,5.4017406 2.7501244,5.0744702 2.5172023,4.6802145 2.1525564,4.5905616 2.0015884,4.5534431 1.7851871,4.6019212 1.7100941,4.7380489 1.5707186,4.9907098 1.8934652,5.2910982 1.9165778,5.5787253 1.9410688,5.8835382 1.8138213,6.1887263 1.8428348,6.493144 1.8916958,7.0060882 2.1258985,7.484135 2.2557901,7.9827624 2.3603981,8.3843103 2.416002,8.7997017 2.55077,9.1921552 c 0.2765786,0.805422 0.7067498,1.6929608 1.1216411,2.1649128 0.3398404,0.386578 1.2195698,0.824981 1.9566431,0.89732 0.7795088,0.07651 1.6191297,-0.149983 1.9320796,-0.346554 C 7.8763482,11.709837 8.592922,11.215223 8.7861965,10.78798 9.0393205,10.228434 9.1202018,9.9336422 9.2761751,9.3396422 9.4373242,8.7259291 9.4172332,8.0693384 9.6153952,7.4665576 9.7966712,6.9151408 10.117148,6.4195293 10.382327,5.9031962 10.519994,5.6351442 10.76782,5.3781444 10.841326,5.0859092 10.894094,4.8761298 10.997647,4.7565731 10.976902,4.5412559 10.954548,4.3092563 10.904019,4.216521 10.709943,4.2012931 10.509954,4.1856016 10.318401,4.318612 10.202378,4.4822603 10.053948,4.6916163 9.8803722,4.961393 9.7308542,5.1884077 9.5748082,5.4253334 9.4346672,5.6438623 9.2909235,5.8884469 9.1216488,6.1764748 8.745222,6.7291231 8.745222,6.7291231 8.6916439,6.7934115 8.2600248,6.7661507 8.3470069,6.4488978 c 0,0 0.3605467,-0.9190191 0.567608,-1.3421311 C 9.0734472,4.7822118 9.3646692,4.2808392 9.3941672,4.2070957 9.4236642,4.1333517 9.7340932,3.7092989 9.8956222,3.4549124 10.043411,3.2221652 10.1737,2.9891711 10.292048,2.7261169 10.390967,2.5062478 10.299713,2.21875 10.106424,2.0746438 9.9330032,1.9453504 9.8006792,2.1057872 9.6243442,2.2310774 9.3162962,2.4499537 9.2208333,2.7547464 8.5588589,3.6804629 8.3872805,3.9204011 8.2388088,4.2110769 8.1009082,4.4718316 7.8167212,5.0091983 7.5719114,5.8938936 7.4993748,5.9765227 7.4371116,6.047458 7.3191531,6.0958767 7.2305851,6.0655508 7.172358,6.0456147 7.1335344,5.9720272 7.1302422,5.9105723 7.117851,5.6793255 7.3630896,5.0559217 7.5063336,4.5905632 7.6293723,4.1908449 7.7561518,3.7922163 7.8898002,3.3959193 8.0264428,2.9907408 8.1936244,2.5957851 8.3175122,2.186526 8.4335875,1.8030744 8.6580062,1.4194198 8.6124862,1.021379 8.5881738,0.80877724 8.5226676,0.51476464 8.3184987,0.45068844 8.0632993,0.37059634 7.7602167,0.60527754 7.6093327,0.82612904 7.3611452,1.189407 7.1927154,1.9526503 6.9835988,2.5156114 6.8518389,2.8703211 6.6988858,3.2177968 6.5873002,3.5793601 6.4162397,4.1336373 6.3341186,4.7124263 6.1701447,5.2688415 6.1036399,5.4945078 6.1266603,5.6155378 5.9774713,5.7974443 5.8265752,5.8768734 5.517466,5.9531833 5.4599302,5.8789965 5.3795411,5.7546922 5.4211397,4.9983087 5.440124,4.6639656 5.4531369,4.4347929 5.4407485,4.2043033 5.4609818,3.975658 5.4988249,3.5486312 5.5945687,3.1286007 5.6487011,2.7033318 5.6981463,2.314892 5.7592678,1.9265971 5.7738484,1.5352946 5.781873,1.3198012 5.8642754,1.1552741 5.7677211,0.96244594 5.688004,0.80321204 5.5581348,0.67296694 5.380061,0.67296694 c -0.2225915,0 -0.3648382,0.1365121 -0.4771987,0.32866396 C 4.7072709,1.3361214 4.7043808,1.7397108 4.6266497,2.1193132 4.5217865,2.6314281 4.3946325,3.1828515 4.3249527,3.7009277 4.2526417,4.2385681 4.2440027,4.7274597 4.2094939,5.2688415 4.1877062,5.6105943 4.1627976,5.953305 4.105207,6.2908748 4.0331605,6.7131501 4.0862167,7.1714471 3.7601489,7.2158301 Z"
       id="path16715"
       sodipodi:nodetypes="assssssssssssssssssssscsssssssssssssssssssssccsssssssssssa" />
    <path
       style="display:none;fill:#ffffff;fill-opacity:1;stroke:none;stroke-width:1.77126;stroke-linecap:round;stroke-linejoin:round;stroke-miterlimit:4;stroke-dasharray:none;stroke-opacity:1;paint-order:markers stroke fill"
       d="M 3.7601657,7.2158301 C 3.4532341,7.2576057 3.3661167,6.8437395 3.214463,6.463647 3.0787985,6.1236263 3.1137318,5.7208018 2.9342369,5.4017406 2.7501244,5.0744702 2.5172023,4.6802145 2.1525564,4.5905616 2.0015884,4.5534431 1.7851871,4.6019212 1.7100941,4.7380489 1.5707186,4.9907098 1.8934652,5.2910982 1.9165778,5.5787253 1.9410688,5.8835382 1.8138213,6.1887263 1.8428348,6.493144 1.8916958,7.0060882 2.1258985,7.484135 2.2557901,7.9827624 2.3603981,8.3843103 2.416002,8.7997017 2.55077,9.1921552 c 0.2765786,0.805422 0.7067498,1.6929608 1.1216411,2.1649128 0.3398404,0.386578 1.2195698,0.824981 1.9566431,0.89732 0.7795088,0.07651 1.6191297,-0.149983 1.9320796,-0.346554 C 7.8763482,11.709837 8.592922,11.215223 8.7861965,10.78798 9.0393205,10.228434 9.1202018,9.9336422 9.2761751,9.3396422 9.4373242,8.7259291 9.4172332,8.0693384 9.6153952,7.4665576 9.7966712,6.9151408 10.117148,6.4195293 10.382327,5.9031962 10.519994,5.6351442 10.76782,5.3781444 10.841326,5.0859092 10.894094,4.8761298 10.997647,4.7565731 10.976902,4.5412559 10.954548,4.3092563 10.904019,4.216521 10.709943,4.2012931 10.509954,4.1856016 10.318401,4.318612 10.202378,4.4822603 10.053948,4.6916163 9.8803722,4.961393 9.7308542,5.1884077 9.5748082,5.4253334 9.4346672,5.6438623 9.2909235,5.8884469 9.1216488,6.1764748 8.745222,6.7291231 8.745222,6.7291231 8.6916439,6.7934115 8.2600248,6.7661507 8.3470069,6.4488978 c 0,0 0.3605467,-0.9190191 0.567608,-1.3421311 C 9.0734472,4.7822118 9.3646692,4.2808392 9.3941672,4.2070957 9.4236642,4.1333517 9.7340932,3.7092989 9.8956222,3.4549124 10.043411,3.2221652 10.1737,2.9891711 10.292048,2.7261169 10.390967,2.5062478 10.299713,2.21875 10.106424,2.0746438 9.9330032,1.9453504 9.8006792,2.1057872 9.6243442,2.2310774 9.3162962,2.4499537 9.2208333,2.7547464 8.5588589,3.6804629 8.3872805,3.9204011 8.2388088,4.2110769 8.1009082,4.4718316 7.8167212,5.0091983 7.5719114,5.8938936 7.4993748,5.9765227 7.4371116,6.047458 7.3191531,6.0958767 7.2305851,6.0655508 7.172358,6.0456147 7.1335344,5.9720272 7.1302422,5.9105723 7.117851,5.6793255 7.3630896,5.0559217 7.5063336,4.5905632 7.6293723,4.1908449 7.7561518,3.7922163 7.8898002,3.3959193 8.0264428,2.9907408 8.1936244,2.5957851 8.3175122,2.186526 8.4335875,1.8030744 8.6580062,1.4194198 8.6124862,1.021379 8.5881738,0.80877724 8.5226676,0.51476464 8.3184987,0.45068844 8.0632993,0.37059634 7.7602167,0.60527754 7.6093327,0.82612904 7.3611452,1.189407 7.1927154,1.9526503 6.9835988,2.5156114 6.8518389,2.8703211 6.6988858,3.2177968 6.5873002,3.5793601 6.4162397,4.1336373 6.3341186,4.7124263 6.1701447,5.2688415 6.1036399,5.4945078 6.1266603,5.6155378 5.9774713,5.7974443 5.8265752,5.8768734 5.517466,5.9531833 5.4599302,5.8789965 5.3795411,5.7546922 5.4211397,4.9983087 5.440124,4.6639656 5.4531369,4.4347929 5.4407485,4.2043033 5.4609818,3.975658 5.4988249,3.5486312 5.5945687,3.1286007 5.6487011,2.7033318 5.6981463,2.314892 5.7592678,1.9265971 5.7738484,1.5352946 5.781873,1.3198012 5.8642754,1.1552741 5.7677211,0.96244594 5.688004,0.80321204 5.5581348,0.67296694 5.380061,0.67296694 c -0.2225915,0 -0.3648382,0.1365121 -0.4771987,0.32866396 C 4.7072709,1.3361214 4.7043808,1.7397108 4.6266497,2.1193132 4.5217865,2.6314281 4.3946325,3.1828515 4.3249527,3.7009277 4.2526417,4.2385681 4.2440027,4.7274597 4.2094939,5.2688415 4.1877062,5.6105943 4.1627976,5.953305 4.105207,6.2908748 4.0331605,6.7131501 4.0862167,7.1714471 3.7601489,7.2158301 Z"
       id="path16715-0"
       sodipodi:nodetypes="assssssssssssssssssssscsssssssssssssssssssssccsssssssssssa" />
    <path
       id="path16715-0-1"
       style="display:inline;fill:url(#linearGradient10860);fill-opacity:1;stroke:none;stroke-width:1.77126;stroke-linecap:round;stroke-linejoin:round;stroke-miterlimit:4;stroke-dasharray:none;stroke-opacity:1;paint-order:markers stroke fill"
       d="M 10.672571,4.2000886 C 10.486315,4.2023694 10.310867,4.3285877 10.202095,4.4820077 10.053665,4.691364 9.8805282,4.9616222 9.7310092,5.1886367 9.5749632,5.4255624 9.4347882,5.6439688 9.2910443,5.8885534 9.1217697,6.1765811 8.7455121,6.7288193 8.7455121,6.7288193 8.7223767,6.7565787 8.6287354,6.7670382 8.5368185,6.7446845 l 1.0843527,0.7054083 c 0.1822,-0.5447999 0.4984118,-1.035729 0.7609368,-1.5468946 0.137668,-0.2680521 0.385986,-0.5248428 0.459492,-0.817078 0.05277,-0.2097792 0.156213,-0.3296046 0.135468,-0.5449217 -0.02236,-0.2319996 -0.0732,-0.324662 -0.267274,-0.3398898 -0.0125,-9.685e-4 -0.02481,-0.00137 -0.03722,-0.00122 z" />
    <path
       id="path16715-0-0"
       style="display:inline;fill:url(#linearGradient10287);fill-opacity:1;stroke:none;stroke-width:1.77126;stroke-linecap:round;stroke-linejoin:round;stroke-miterlimit:4;stroke-dasharray:none;stroke-opacity:1;paint-order:markers stroke fill"
       d="M 9.9830282,2.0271133 C 9.8643842,2.0235641 9.7564732,2.1369575 9.6242212,2.2309249 9.3161732,2.4498015 9.220761,2.7544689 8.5587864,3.6801854 8.387208,3.9201235 8.2390258,4.2108794 8.1011251,4.4716341 7.8169382,5.009001 7.5719899,5.8937953 7.4994533,5.9764243 7.4626303,6.0183763 7.4063033,6.0515563 7.34812,6.0661263 l 0.998922,0.3826046 c 0,0 0.3604386,-0.9187505 0.5674998,-1.3418626 0.1588322,-0.3245548 0.4501314,-0.8263234 0.4796284,-0.9000669 0.0295,-0.073744 0.340068,-0.4973983 0.501597,-0.7517848 0.1477888,-0.2327473 0.2776818,-0.4655423 0.3960298,-0.7285965 0.09892,-0.2198692 0.0078,-0.5076032 -0.185506,-0.6517097 -0.04336,-0.032323 -0.08371,-0.046413 -0.1232628,-0.047597 z" />
    <path
       id="path16715-0-7"
       style="display:inline;fill:url(#linearGradient9348);fill-opacity:1;stroke:none;stroke-width:1.77126;stroke-linecap:round;stroke-linejoin:round;stroke-miterlimit:4;stroke-dasharray:none;stroke-opacity:1;paint-order:markers stroke fill"
       d="M 8.2207274,0.43506254 C 7.9896888,0.42934604 7.7413154,0.63296524 7.6092918,0.82621024 7.3611046,1.1894882 7.1929382,1.9529343 6.9838216,2.5158955 6.8520617,2.8706051 6.6987676,3.2179367 6.587182,3.5795001 6.4161215,4.1337772 6.3343792,4.7121596 6.1704053,5.268575 6.1039005,5.494241 6.1267663,5.6157248 5.9775772,5.7976312 L 7.1534614,5.9916797 C 7.1400332,5.9658698 7.1316975,5.9371188 7.1302729,5.910521 7.1178819,5.6792743 7.3629214,5.0559845 7.5061652,4.5906262 7.6292039,4.1909079 7.756342,3.7921222 7.8899905,3.3958253 8.0266331,2.990647 8.1938634,2.5956385 8.3177513,2.1863792 8.4338266,1.8029277 8.6580051,1.4195198 8.612485,1.021479 8.5881717,0.80887724 8.5225302,0.51500424 8.3183615,0.45092814 c -0.0319,-0.010011 -0.064629,-0.015049 -0.097634,-0.0158656 z" />
    <path
       id="path16715-0-4"
       style="display:inline;fill:url(#linearGradient6981);fill-opacity:1;stroke:none;stroke-width:1.77126;stroke-linecap:round;stroke-linejoin:round;stroke-miterlimit:4;stroke-dasharray:none;stroke-opacity:1;paint-order:markers stroke fill"
       d="m 5.3801769,0.67304634 c -0.2225914,0 -0.3648277,0.1361437 -0.4771881,0.32829556 C 4.7073973,1.3358324 4.7042926,1.7396532 4.6265616,2.1192555 4.5216982,2.6313705 4.3947951,3.1828564 4.3251154,3.7009326 4.2528044,4.2385732 4.2442935,4.7271931 4.2097846,5.268575 4.1981778,5.4506296 4.1855276,5.6330409 4.16768,5.8147174 l 1.292435,0.064072 C 5.3797261,5.7544856 5.4209937,4.9981949 5.4399788,4.663852 5.4529916,4.4346792 5.4404787,4.2041749 5.4607273,3.9755296 5.4985704,3.5485027 5.5945414,3.1285002 5.6486737,2.7032313 5.6981189,2.3147914 5.7591871,1.9265825 5.7737675,1.53528 5.7817901,1.3197866 5.8642176,1.1551164 5.7676633,0.96228824 5.6879461,0.80305434 5.5582508,0.67304634 5.3801769,0.67304634 Z" />
  </g>
</svg>
